<?xml version="1.0" encoding="UTF-8" standalone="no"?>
<svg
   viewBox="0 0 1440 91"
   version="1.1"
   id="svg1"
   sodipodi:docname="waves.svg"
   inkscape:export-filename="C:\Users\Tom\Downloads\waves.svg"
   inkscape:export-xdpi="96"
   inkscape:export-ydpi="96"
   inkscape:version="1.4 (86a8ad7, 2024-10-11)"
   width="1440"
   height="91"
   xmlns:inkscape="http://www.inkscape.org/namespaces/inkscape"
   xmlns:sodipodi="http://sodipodi.sourceforge.net/DTD/sodipodi-0.dtd"
   xmlns="http://www.w3.org/2000/svg"
   xmlns:svg="http://www.w3.org/2000/svg">
  <defs
     id="defs1" />
  <sodipodi:namedview
     id="namedview1"
     pagecolor="#ffffff"
     bordercolor="#000000"
     borderopacity="0.25"
     inkscape:showpageshadow="2"
     inkscape:pageopacity="0.0"
     inkscape:pagecheckerboard="0"
     inkscape:deskcolor="#d1d1d1"
     inkscape:zoom="4.3666668"
     inkscape:cx="1426.2595"
     inkscape:cy="108.32061"
     inkscape:window-width="3840"
     inkscape:window-height="2054"
     inkscape:window-x="3829"
     inkscape:window-y="-11"
     inkscape:window-maximized="1"
     inkscape:current-layer="svg1">
    <inkscape:page
       x="0"
       y="0"
       width="1440"
       height="91"
       id="page2"
       margin="0"
       bleed="0" />
  </sodipodi:namedview>
  <path
     fill="#0067a7"
     d="m -6,54.59619 h 27.8 c 21.8,0 65.2,0 109.2,-5.56458 43.5,-5.35656 87,-16.79776 131,-13.83345 43.5,2.75629 87,19.39803 131,11.07716 43.4,-8.32087 87,-41.60436 131,-38.84807 43.3,2.96431 87,41.44834 131,61.05439 43.2,19.39803 87,19.39803 130,8.32087 44.1,-11.28518 88,-33.12746 131,-44.41265 44,-11.07716 88,-11.07716 131,-16.64174 43.9,-5.35656 88,-16.79776 131,-5.51257 43.8,11.07715 87,44.36064 131,47.11693 43.7,2.96431 87,-25.11863 109,-38.79606 L 1444,4.67096 V 109 H 1418.2 1309 1178 1047 916 785 655 524 393 262 131 22 -6 Z"
     id="path1"
     style="fill:#212121;fill-opacity:1;stroke-width:0.721148"
     sodipodi:nodetypes="csccccccccccccccccccccccccccc"
     inkscape:export-filename="waves.svg"
     inkscape:export-xdpi="96"
     inkscape:export-ydpi="96" />
</svg>
